# xmcd
#
# Track frame offsets: 
#        150
#        14308
#        28081
#        41813
#        55921
#        70616
#        84771
#        99049
#        111594
#        125297
#        140913
#        156135
#        170690
#        183087
#        195929
#        208596
#        222581
#        235316
#        249748
#        264544
#
# Disc length: 3705 seconds
#
# Revision: 0
# Processed by: cddbd v1.5.2PL0 Copyright (c) Steve Scherf et al.
# Submitted via: ExactAudioCopy v1.0b3
#
DISCID=1a0e7714
DTITLE=Leroy Carr - The Best Of Leroy Carr
DYEAR=2011
DGENRE=Blues
TTITLE0=How Long - How Long Blues
TTITLE1=Tennessee Blues
TTITLE2=Mean Old Train Blues
TTITLE3=Low Down Dirty Blues
TTITLE4=Baby, Don't You Love Me No More
TTITLE5=Prison Bound Blues
TTITLE6=Gambler's Blues
TTITLE7=Naptown Blues
TTITLE8=Love Hides All Faults
TTITLE9=Gettin' All Wet
TTITLE10=Rainy Day Blues
TTITLE11=Christmas In Jail - Ain't That A Pain?
TTITLE12=Papa Wants A Cookie
TTITLE13=Alabama Women Blues
TTITLE14=Low Down Dog Blues
TTITLE15=Lonesome Night
TTITLE16=Bad Luck All The Time
TTITLE17=Big Four Blues
TTITLE18=Going Back Home
TTITLE19=When The Sun Goes Down
EXTD=
EXTT0=
EXTT1=
EXTT2=
EXTT3=
EXTT4=
EXTT5=
EXTT6=
EXTT7=
EXTT8=
EXTT9=
EXTT10=
EXTT11=
EXTT12=
EXTT13=
EXTT14=
EXTT15=
EXTT16=
EXTT17=
EXTT18=
EXTT19=
PLAYORDER=
